# xmcd CD database file
#
# Track frame offsets:
#	183
#	1823
#	11068
#	34733
#	58258
#	98970
#	111803
#	125870
#	142630
#	178213
#	190915
#	205268
#	240370
#
# Disc length: 3422 seconds
#
# Revision: 0
# Processed by: cddbd v1.5.2PL0 Copyright (c) Steve Scherf et al.
# Submitted via: CDex 1.70beta2
#
DISCID=af0d5c0d
DTITLE=富樫雅彦 - Passing in the Silence
DYEAR=1900
DGENRE=Jazz
TTITLE0=Introduction
TTITLE1=Pas 1
TTITLE2=Pas 2
TTITLE3=Pas 3
TTITLE4=Pas 4
TTITLE5=Pas 5
TTITLE6=Pas 6
TTITLE7=Pas 7
TTITLE8=Pas 8
TTITLE9=Pas 9
TTITLE10=Pas 10
TTITLE11=Pas 11
TTITLE12=Pas 12
EXTD=
EXTT0=
EXTT1=
EXTT2=
EXTT3=
EXTT4=
EXTT5=
EXTT6=
EXTT7=
EXTT8=
EXTT9=
EXTT10=
EXTT11=
EXTT12=
PLAYORDER=
